HIERARCHY
ROOT Hips
{
	OFFSET 0.000000 0.000000 0.000000 
	CHANNELS 6 Xposition Yposition Zposition Zrotation Xrotation Yrotation
	JOINT LeftUpLeg
	{
		OFFSET 2.390000 -0.997500 0.003131 
		CHANNELS 3 Zrotation Xrotation Yrotation
		JOINT LeftUpLegRoll
		{
			OFFSET -0.008228 -5.368025 -0.050000 
			CHANNELS 3 Zrotation Xrotation Yrotation
			JOINT LeftLeg
			{
				OFFSET 0.008228 -5.304475 -0.040000 
				CHANNELS 3 Zrotation Xrotation Yrotation
				JOINT LeftLegRoll
				{
					OFFSET 0.008266 -8.023550 -0.789272 
					CHANNELS 3 Zrotation Xrotation Yrotation
					JOINT LeftFoot
					{
						OFFSET -0.008285 -2.447005 -0.176461 
						CHANNELS 3 Zrotation Xrotation Yrotation
						End Site
						{
							OFFSET -0.006362 -1.603547 3.533050 
						}
					}
				}
			}
		}
	}
	JOINT RightUpLeg
	{
		OFFSET -2.390000 -0.997500 0.003131 
		CHANNELS 3 Zrotation Xrotation Yrotation
		JOINT RightUpLegRoll
		{
			OFFSET 0.007500 -5.367500 -0.050000 
			CHANNELS 3 Zrotation Xrotation Yrotation
			JOINT RightLeg
			{
				OFFSET -0.007500 -5.305000 -0.040000 
				CHANNELS 3 Zrotation Xrotation Yrotation
				JOINT RightLegRoll
				{
					OFFSET 0.005000 -8.024050 -0.790258 
					CHANNELS 3 Zrotation Xrotation Yrotation
					JOINT RightFoot
					{
						OFFSET 0.020000 -2.446472 -0.175476 
						CHANNELS 3 Zrotation Xrotation Yrotation
						End Site
						{
							OFFSET 0.010000 -1.603528 3.533050 
						}
					}
				}
			}
		}
	}
	JOINT Spine
	{
		OFFSET 0.000524 2.857650 0.095838 
		CHANNELS 3 Zrotation Xrotation Yrotation
		JOINT Spine1
		{
			OFFSET 0.000000 3.491675 -0.016748 
			CHANNELS 3 Zrotation Xrotation Yrotation
			JOINT Spine2
			{
				OFFSET 0.000000 2.811225 -0.017190 
				CHANNELS 3 Zrotation Xrotation Yrotation
				JOINT Spine3
				{
					OFFSET 0.000000 3.297825 -0.158152 
					CHANNELS 3 Zrotation Xrotation Yrotation
					JOINT LeftShoulder
					{
						OFFSET 2.247500 -0.945430 -0.255617 
						CHANNELS 3 Zrotation Xrotation Yrotation
						JOINT LeftArm
						{
							OFFSET 2.422500 0.192500 0.242500 
							CHANNELS 3 Zrotation Xrotation Yrotation
							JOINT LeftArmRoll
							{
								OFFSET 3.011150 -0.056125 -0.149282 
								CHANNELS 3 Zrotation Xrotation Yrotation
								JOINT LeftForeArm
								{
									OFFSET 3.544950 0.021691 -0.254337 
									CHANNELS 3 Zrotation Xrotation Yrotation
									JOINT LeftForeArmRoll
									{
										OFFSET 3.242425 0.024099 -0.017220 
										CHANNELS 3 Zrotation Xrotation Yrotation
										End Site
										{
											OFFSET 3.371325 0.031393 -0.007218 
										}
									}
								}
							}
						}
					}
					JOINT RightShoulder
					{
						OFFSET -2.247500 -0.945430 -0.255617 
						CHANNELS 3 Zrotation Xrotation Yrotation
						JOINT RightArm
						{
							OFFSET -2.422500 0.192500 0.242500 
							CHANNELS 3 Zrotation Xrotation Yrotation
							JOINT RightArmRoll
							{
								OFFSET -3.062100 -0.062702 -0.132500 
								CHANNELS 3 Zrotation Xrotation Yrotation
								JOINT RightForeArm
								{
									OFFSET -3.498150 0.035499 -0.338573 
									CHANNELS 3 Zrotation Xrotation Yrotation
									JOINT RightForeArmRoll
									{
										OFFSET -3.278950 0.026904 0.120309 
										CHANNELS 3 Zrotation Xrotation Yrotation
										End Site
										{
											OFFSET -3.349925 0.018716 0.058049 
										}
									}
								}
							}
						}
					}
					JOINT Neck
					{
						OFFSET 0.000000 1.108613 -0.101302 
						CHANNELS 3 Zrotation Xrotation Yrotation
						End Site
						{
							OFFSET 0.000000 1.617325 0.410885 
						}
					}
				}
			}
		}
	}
}
MOTION
Frames: 11
Frame Time: 0.041667
-0.133461 23.913950 -4.926375 -0.723393 14.588000 -1.756320 0.974022 -26.365299 -3.223920 0.000000 -0.000000 0.000000 -6.384790 24.959999 1.852030 0.000000 -0.000000 0.000000 12.959100 0.912404 3.788420 -0.088793 -27.310200 10.950400 0.000000 0.000000 0.000000 11.164500 26.736000 -4.464340 -0.000000 0.000000 0.000000 -12.648200 -0.853608 -5.299730 1.045390 0.728380 0.278753 -0.000000 0.000000 -0.000000 0.000000 0.000000 -0.000000 0.000000 -0.000000 0.000000 -9.585800 -1.044320 -2.969820 -47.244701 20.475800 23.265200 0.000000 -0.000000 0.000000 13.111600 -39.182098 -74.315804 -0.000000 0.000000 -0.000000 10.518900 0.149348 0.898402 38.323799 17.683201 -12.456600 -0.000000 0.000000 0.000000 -42.741901 -35.367298 50.644901 -0.000000 0.000000 0.000000 0.000000 0.000000 0.000000 
-0.125246 23.372025 -5.182025 -0.276861 18.422701 -2.787020 2.111290 -35.451599 -2.231330 0.000000 -0.000000 0.000000 -9.245110 32.235699 3.373710 0.000000 -0.000000 0.000000 15.304400 -0.469769 4.751800 -1.235330 -37.997101 12.474300 0.000000 0.000000 0.000000 17.770800 34.105000 -8.312950 -0.000000 0.000000 0.000000 -16.059900 -1.341490 -6.343160 1.186830 1.123850 0.440944 -0.000000 0.000000 -0.000000 0.000000 0.000000 -0.000000 0.000000 -0.000000 0.000000 -11.813300 -1.196140 -3.127600 -53.623299 25.308901 26.409800 0.000000 -0.000000 0.000000 16.106001 -40.257301 -76.439003 -0.000000 0.000000 -0.000000 12.292800 0.163057 1.075430 43.950001 23.188400 -14.134300 -0.000000 0.000000 0.000000 -47.093300 -37.982601 53.075298 -0.000000 0.000000 0.000000 0.000000 0.000000 0.000000 
-0.116945 22.670324 -5.486250 0.072930 21.812700 -3.364240 3.719680 -44.701302 -0.287219 0.000000 -0.000000 0.000000 -12.787700 40.887199 5.691780 0.000000 -0.000000 0.000000 18.158701 -2.049170 6.110260 -2.101960 -46.432800 12.850900 0.000000 0.000000 0.000000 24.291700 40.849800 -12.967600 -0.000000 0.000000 0.000000 -18.926500 -2.418040 -7.597200 1.253510 1.617440 0.599425 -0.000000 0.000000 -0.000000 0.000000 0.000000 -0.000000 0.000000 -0.000000 0.000000 -13.124700 -1.312290 -3.304450 -59.516102 28.884199 28.845100 0.000000 -0.000000 0.000000 18.662201 -40.606602 -75.889801 -0.000000 0.000000 -0.000000 13.389600 0.210847 0.859578 49.357601 28.935499 -16.186899 -0.000000 0.000000 0.000000 -50.261299 -39.223900 53.758301 -0.000000 0.000000 0.000000 0.000000 0.000000 0.000000 
-0.115483 21.941549 -5.696125 0.230336 24.393499 -3.685800 5.505000 -51.342999 1.548780 0.000000 -0.000000 0.000000 -16.304600 48.100899 8.297570 0.000000 -0.000000 0.000000 20.690399 -3.651310 7.539060 -3.064070 -53.297501 12.428200 0.000000 0.000000 0.000000 30.675400 46.203800 -18.136101 -0.000000 0.000000 0.000000 -20.840099 -3.573800 -8.580180 1.311450 2.155290 0.716528 -0.000000 0.000000 -0.000000 0.000000 0.000000 -0.000000 0.000000 -0.000000 0.000000 -13.581900 -1.359880 -3.423050 -64.932404 30.600901 30.731701 0.000000 -0.000000 0.000000 20.719299 -39.869701 -72.795700 -0.000000 0.000000 -0.000000 13.901100 0.272774 0.439746 54.771999 34.264999 -18.608400 -0.000000 0.000000 0.000000 -51.722401 -38.902000 53.019100 -0.000000 0.000000 0.000000 0.000000 0.000000 0.000000 
-0.102042 21.266500 -5.836600 0.249721 26.852900 -3.287070 7.283140 -58.229301 3.228540 0.000000 -0.000000 0.000000 -20.928200 54.483200 12.143300 0.000000 -0.000000 0.000000 22.877600 -5.467030 8.991190 -4.941910 -59.700199 11.066000 0.000000 0.000000 0.000000 38.373798 52.145599 -24.294399 -0.000000 0.000000 0.000000 -22.426500 -5.188120 -9.381300 1.435180 2.696650 0.752158 -0.000000 0.000000 -0.000000 0.000000 0.000000 -0.000000 0.000000 -0.000000 0.000000 -13.897200 -1.366400 -3.353280 -69.936996 30.927799 32.767300 0.000000 -0.000000 0.000000 20.362700 -38.277199 -68.929703 -0.000000 0.000000 -0.000000 14.299400 0.337981 -0.010260 61.500599 38.527401 -22.343901 -0.000000 0.000000 0.000000 -51.370800 -37.137199 51.319901 -0.000000 0.000000 0.000000 0.000000 0.000000 0.000000 
-0.097287 20.656099 -5.848050 0.277577 28.531401 -2.652710 8.582410 -62.419399 4.706080 0.000000 -0.000000 0.000000 -24.945000 58.948601 15.474700 0.000000 -0.000000 0.000000 24.464800 -6.996070 10.160800 -7.858850 -64.922897 8.549640 0.000000 0.000000 0.000000 45.028801 55.396900 -29.923100 -0.000000 0.000000 0.000000 -23.635500 -7.266530 -10.396400 1.542520 3.074200 0.789532 -0.000000 0.000000 -0.000000 0.000000 0.000000 -0.000000 0.000000 -0.000000 0.000000 -14.405600 -1.336940 -2.942800 -73.271797 31.169201 34.977200 0.000000 -0.000000 0.000000 17.500200 -37.133400 -66.734596 -0.000000 0.000000 -0.000000 15.062600 0.400048 -0.409790 67.411499 40.089600 -26.266399 -0.000000 0.000000 0.000000 -49.503201 -35.174801 49.728100 -0.000000 0.000000 0.000000 0.000000 0.000000 0.000000 
-0.078348 20.142925 -5.934050 0.695951 31.081499 -2.484270 10.518300 -67.630096 7.169070 0.000000 -0.000000 0.000000 -29.188700 62.336700 19.301500 0.000000 -0.000000 0.000000 25.670401 -7.846250 11.012000 -11.790500 -69.291496 4.975130 0.000000 0.000000 0.000000 51.313900 57.641102 -35.524601 -0.000000 0.000000 0.000000 -24.971800 -8.063400 -11.143700 1.608320 3.379640 0.874850 -0.000000 0.000000 -0.000000 0.000000 0.000000 -0.000000 0.000000 -0.000000 0.000000 -14.692800 -1.252890 -2.423430 -75.624397 31.855101 36.957001 0.000000 -0.000000 0.000000 15.344200 -36.614300 -65.520103 -0.000000 0.000000 -0.000000 15.581900 0.449410 -0.735040 71.248901 39.980499 -28.792999 -0.000000 0.000000 0.000000 -47.306702 -33.836800 48.688202 -0.000000 0.000000 0.000000 0.000000 0.000000 0.000000 
-0.056823 19.747974 -5.982050 1.050070 33.047100 -2.230760 11.671800 -71.092903 8.680810 0.000000 -0.000000 0.000000 -32.884300 64.690300 22.690701 0.000000 -0.000000 0.000000 26.321800 -8.069690 11.393500 -16.080099 -72.596298 1.176710 0.000000 0.000000 0.000000 56.249199 59.140999 -39.919201 -0.000000 0.000000 0.000000 -25.836300 -8.390610 -11.623000 1.671260 3.601830 0.923034 -0.000000 0.000000 -0.000000 0.000000 0.000000 -0.000000 0.000000 -0.000000 0.000000 -14.635200 -1.184010 -2.081150 -77.614403 32.442001 38.440800 0.000000 -0.000000 0.000000 14.566900 -36.165901 -64.045898 -0.000000 0.000000 -0.000000 15.766700 0.466185 -0.845324 73.764000 39.641201 -30.259899 -0.000000 0.000000 0.000000 -45.278099 -32.938900 47.915798 -0.000000 0.000000 0.000000 0.000000 0.000000 0.000000 
-0.043874 19.469200 -5.976725 1.203080 34.343300 -1.727290 12.568900 -74.165398 9.579280 0.000000 -0.000000 0.000000 -36.522499 66.778198 26.044001 0.000000 -0.000000 0.000000 26.826401 -7.976170 11.534500 -21.302700 -75.244301 -3.801750 0.000000 0.000000 0.000000 60.944302 60.311798 -44.172100 -0.000000 0.000000 0.000000 -27.012199 -8.094030 -12.353000 1.754320 3.787240 0.946886 -0.000000 0.000000 -0.000000 0.000000 0.000000 -0.000000 0.000000 -0.000000 0.000000 -14.537900 -1.188700 -2.112780 -79.093201 32.922901 38.950100 0.000000 -0.000000 0.000000 14.047500 -35.430401 -62.149700 -0.000000 0.000000 -0.000000 15.741200 0.459709 -0.797930 75.300797 39.848900 -30.666700 -0.000000 0.000000 0.000000 -43.397202 -32.105801 47.176899 -0.000000 0.000000 0.000000 0.000000 0.000000 0.000000 
-0.075259 19.296749 -5.965125 1.342210 34.980999 -1.645140 13.559600 -75.589401 10.270100 0.000000 -0.000000 0.000000 -39.433998 68.107201 28.783199 0.000000 -0.000000 0.000000 26.906401 -7.679400 11.504700 -22.958000 -76.156097 -7.273320 0.000000 0.000000 0.000000 59.727501 60.065102 -43.546799 -0.000000 0.000000 0.000000 -34.029900 0.744052 -14.522200 1.570340 3.899340 1.001500 -0.000000 0.000000 -0.000000 0.000000 0.000000 -0.000000 0.000000 -0.000000 0.000000 -14.509200 -1.234380 -2.382680 -79.288902 33.433701 37.728500 0.000000 -0.000000 0.000000 13.175800 -34.683998 -59.760201 -0.000000 0.000000 -0.000000 15.546500 0.428817 -0.579791 75.468597 40.734200 -29.462000 -0.000000 0.000000 0.000000 -41.069000 -30.976500 45.988899 -0.000000 0.000000 0.000000 0.000000 0.000000 0.000000 
-0.065103 19.291275 -5.865450 1.567280 34.862999 -1.805330 12.513700 -75.565804 8.830010 0.000000 -0.000000 0.000000 -40.493099 68.543503 29.769400 0.000000 -0.000000 0.000000 26.263300 -7.137450 10.914600 -23.110600 -76.085999 -7.330950 0.000000 0.000000 0.000000 60.165699 60.184399 -44.012402 -0.000000 0.000000 0.000000 -34.654099 2.771400 -14.332700 1.521840 3.905870 1.042600 -0.000000 0.000000 -0.000000 0.000000 0.000000 -0.000000 0.000000 -0.000000 0.000000 -14.487600 -1.318390 -2.869400 -78.565201 33.570000 35.496201 0.000000 -0.000000 0.000000 12.229700 -34.037899 -57.234001 -0.000000 0.000000 -0.000000 15.393700 0.364477 -0.099745 74.834900 41.656700 -27.537001 -0.000000 0.000000 0.000000 -40.455502 -29.550800 44.414299 -0.000000 0.000000 0.000000 0.000000 0.000000 0.000000 
